<svg id="svg" version="1.1" width="400" height="304.76190476190476" viewBox="0 0 341 222" xmlns="http://www.w3.org/2000/svg" xmlns:bx="https://boxy-svg.com">
  <defs>
    <bx:grid x="0" y="0" width="19.594" height="20.744"></bx:grid>
  </defs>
  <g id="svgg" transform="matrix(1, 0, 0, 1, -26.049997, -44.188)">
    <path id="path-1" d="M 361.114 46.194 C 364.294 46.312 364.976 50.244 364.315 51.776 C 362.829 55.219 345.85 85.662 345.156 86.212 C 344.886 86.426 344.322 87.228 343.902 87.994 C 342.088 91.311 344.071 91.161 300.61 91.28 C 260.388 91.39 259.844 91.411 258.102 92.916 C 256.772 94.064 256.494 95.006 255.2 97.183 C 254.294 98.707 158.962 259.06 157.624 261.297 C 155.463 264.91 153.548 264 151.829 261.389 C 151.229 260.477 68.223 128.86 67.523 127.697 C 66.514 126.022 65.492 124.967 65.44 122.358 C 65.382 119.468 66.332 118.575 70.374 117.721 C 72.621 117.246 113.383 117.698 115.915 117.716 C 120.328 117.748 122.601 122.939 123.011 123.683 C 124.047 125.565 153.528 176.922 154.281 177.76 C 155.188 178.769 155.561 178.685 156.255 178.034 C 157.455 176.91 228.43 52.104 229.647 50.021 C 230.864 47.938 232.08 46.872 232.927 46.805 C 235.371 46.611 247.847 46.187 303.506 46.188" stroke="none" fill-rule="evenodd" style="fill: rgb(87, 148, 81);"></path>
    <path id="path-2" d="M 321.023 120.62 C 324.074 121.069 324.201 123.74 321.349 127.5 C 320.676 128.389 241.021 260 240.328 261.085 C 238.465 264 236.849 262.121 235.904 260.563 C 235.44 259.798 212.043 222.062 209.654 218.033 C 208.052 215.332 208.563 212.963 210.254 210.521 C 210.987 209.463 228.463 182.877 229.005 182.053 C 229.847 180.773 230.741 181.35 231.546 182.248 C 232.177 182.952 235.97 187.205 237.308 188.469 C 238.898 189.97 239.71 188.414 240.702 186.955 C 241.386 185.949 281.685 123.784 282.302 122.914 C 283.737 120.892 284.172 120.741 287.127 120.454 C 289.81 120.194 318.952 120.315 321.023 120.62" stroke="none" fill-rule="evenodd" style="fill: rgb(183, 185, 188);"></path>
    <path id="path2" d="M 160.172 46.95 C 161.743 47.019 163.018 48.931 163.382 49.546 C 163.992 50.576 182.472 81.711 182.678 82.103 C 185.286 87.072 183.96 90.923 181.752 94.464 C 179.341 98.331 180.184 97.037 179.553 98.027 C 178.523 99.644 163.258 125.733 161.61 125.65 C 161.083 125.624 140.091 97.695 138.44 95.357 C 138.159 94.959 137.638 94.183 136.62 93.14 C 135.602 92.097 135.343 92.144 135.053 91.997 C 133.933 91.431 124.929 91.427 90.396 91.302 C 49.157 91.153 52.961 91.75 49.786 87.727 C 49.481 87.34 28.051 50.4 28.05 49.372 C 28.048 47.759 29.123 47.124 32.622 46.671" stroke="none" fill-rule="evenodd" style="fill: rgb(193, 169, 62);"></path>
  </g>
</svg>