<?xml version="1.0" standalone="no"?>
<!DOCTYPE svg PUBLIC "-//W3C//DTD SVG 20010904//EN"
 "http://www.w3.org/TR/2001/REC-SVG-20010904/DTD/svg10.dtd">
<svg version="1.0" xmlns="http://www.w3.org/2000/svg"
 width="750.000000pt" height="750.000000pt" viewBox="0 0 750.000000 750.000000"
 preserveAspectRatio="xMidYMid meet">
<metadata>
Created by potrace 1.14, written by Peter Selinger 2001-2017
</metadata>
<g transform="translate(0.000000,750.000000) scale(0.100000,-0.100000)"
fill="#000000" stroke="none">
<path d="M939 5546 c-70 -48 -70 -49 -67 -533 l3 -432 30 -31 c47 -50 62 -55
195 -60 l124 -5 371 -1350 c205 -742 377 -1360 383 -1372 7 -12 27 -32 44 -45
l33 -23 628 -3 c602 -2 630 -2 672 17 24 10 51 30 60 44 8 13 83 260 165 547
131 459 160 554 160 527 0 -26 284 -1037 298 -1060 9 -17 30 -39 45 -51 28
-21 33 -21 680 -21 l652 0 31 22 c17 13 38 37 47 55 8 18 176 607 372 1308
196 701 366 1295 378 1320 29 60 71 80 190 90 50 4 103 13 117 18 32 13 66 49
79 85 7 18 11 173 11 439 0 396 -1 413 -21 454 -11 24 -35 52 -53 64 -33 20
-46 20 -796 20 -747 0 -763 0 -795 -20 -73 -45 -70 -25 -70 -517 0 -430 1
-442 21 -469 36 -49 65 -64 140 -72 l71 -7 -51 -190 c-29 -104 -60 -221 -70
-258 -10 -37 -20 -66 -22 -65 -1 2 -95 340 -209 752 -113 412 -213 762 -223
778 -9 17 -34 38 -54 49 -35 18 -65 19 -523 19 -522 0 -513 1 -562 -52 -25
-27 -24 -21 -273 -935 -101 -370 -186 -671 -188 -669 -4 5 -152 557 -152 569
0 4 26 7 58 7 81 0 123 14 162 55 l35 36 3 437 c3 488 3 482 -67 529 l-34 23
-996 0 -996 0 -36 -24z"/>
</g>
</svg>
