<?xml version="1.0" standalone="no"?>
<!DOCTYPE svg PUBLIC "-//W3C//DTD SVG 20010904//EN"
 "http://www.w3.org/TR/2001/REC-SVG-20010904/DTD/svg10.dtd">
<svg version="1.0" xmlns="http://www.w3.org/2000/svg"
 width="582.000000pt" height="582.000000pt" viewBox="0 0 582.000000 582.000000"
 preserveAspectRatio="xMidYMid meet">
<metadata>
Created by potrace 1.14, written by Peter Selinger 2001-2017
</metadata>
<g transform="translate(0.000000,582.000000) scale(0.100000,-0.100000)"
fill="#000000" stroke="none">
<path d="M760 4349 c-73 -8 -83 -13 -108 -58 -21 -38 -22 -49 -22 -371 0 -289
2 -335 16 -360 21 -34 61 -59 100 -60 91 -2 135 -1 144 5 15 9 20 -4 101 -297
22 -82 42 -156 44 -165 2 -10 13 -49 24 -88 10 -38 35 -128 55 -200 20 -71 40
-146 46 -165 6 -19 28 -102 51 -185 22 -82 43 -157 46 -165 3 -8 5 -18 5 -22
-1 -4 5 -27 12 -50 14 -39 72 -249 81 -291 2 -9 6 -21 9 -25 3 -5 7 -19 10
-33 4 -25 26 -107 71 -264 13 -49 30 -110 35 -134 20 -85 49 -118 111 -129 34
-5 797 -8 966 -3 57 2 87 42 123 161 18 58 34 112 37 120 3 8 7 22 8 30 1 8
17 65 34 125 18 61 34 117 36 125 12 48 95 334 99 337 4 4 7 -7 21 -72 2 -11
15 -60 30 -110 64 -226 114 -407 119 -435 2 -14 9 -38 14 -55 6 -16 20 -62 32
-102 23 -80 61 -122 108 -124 146 -5 969 -2 991 3 56 15 74 47 120 208 23 83
44 159 46 168 2 9 18 64 35 122 17 58 33 116 36 130 2 14 9 36 14 50 4 14 21
70 35 125 28 104 52 189 62 215 3 8 7 22 8 30 1 8 32 123 70 255 37 132 68
246 68 253 0 6 3 12 6 12 4 0 8 10 9 23 5 46 149 536 166 561 25 39 46 46 199
60 40 3 71 26 92 66 9 19 12 108 13 352 0 357 -2 369 -59 411 -25 18 -52 19
-628 19 -659 0 -628 2 -668 -59 -16 -24 -18 -60 -19 -363 0 -246 3 -342 12
-360 22 -45 49 -61 112 -67 53 -5 59 -8 56 -27 -3 -17 -25 -105 -38 -151 -1
-5 -8 -30 -15 -55 -6 -25 -21 -76 -33 -115 l-21 -70 -19 70 c-10 39 -21 79
-23 91 -3 12 -11 40 -19 63 -9 22 -13 41 -11 41 3 0 0 12 -5 26 -6 14 -19 58
-29 97 -32 120 -212 767 -226 812 -3 11 -21 31 -39 43 -34 23 -34 23 -420 23
-277 0 -392 -3 -408 -12 -48 -25 -53 -35 -97 -184 -7 -22 -14 -49 -16 -60 -2
-11 -4 -22 -6 -25 -1 -3 -3 -9 -4 -15 -1 -5 -9 -35 -18 -65 -26 -92 -82 -294
-136 -500 -29 -107 -55 -202 -58 -210 -3 -8 -7 -19 -8 -25 -2 -5 -9 -30 -16
-55 -7 -25 -13 -47 -14 -50 -16 -74 -29 -109 -37 -104 -5 3 -7 8 -5 11 3 2 1
19 -4 36 -15 52 -71 260 -75 281 -2 10 -8 33 -14 51 -19 59 -20 74 -2 73 46
-1 122 12 140 23 51 32 52 43 52 404 0 235 -3 343 -12 358 -21 41 -61 67 -103
67 -327 4 -1454 4 -1495 -1z"/>
</g>
</svg>
