<?xml version="1.0" standalone="no"?>
<!DOCTYPE svg PUBLIC "-//W3C//DTD SVG 20010904//EN"
 "http://www.w3.org/TR/2001/REC-SVG-20010904/DTD/svg10.dtd">
<svg version="1.0" xmlns="http://www.w3.org/2000/svg"
 width="800.000000pt" height="800.000000pt" viewBox="0 0 800.000000 800.000000"
 preserveAspectRatio="xMidYMid meet">
<metadata>
Created by potrace 1.14, written by Peter Selinger 2001-2017
</metadata>
<g transform="translate(0.000000,800.000000) scale(0.100000,-0.100000)"
fill="#000000" stroke="none">
<path d="M5867 6564 c-3 -4 -219 -8 -479 -10 -527 -5 -540 -5 -564 -25 -19
-15 -67 -89 -113 -174 -18 -33 -51 -90 -72 -127 -21 -36 -39 -71 -39 -77 0 -6
-4 -11 -9 -11 -5 0 -11 -8 -14 -17 -4 -10 -18 -38 -33 -63 -59 -99 -104 -182
-104 -191 0 -5 -4 -9 -10 -9 -5 0 -10 -4 -10 -9 0 -4 -49 -95 -110 -200 -60
-106 -110 -196 -110 -201 0 -6 -4 -10 -8 -10 -4 0 -13 -12 -19 -27 -7 -16 -23
-46 -36 -68 -13 -22 -59 -103 -102 -180 -44 -77 -81 -142 -85 -145 -3 -3 -15
-23 -27 -45 -23 -44 -53 -97 -82 -147 -10 -18 -62 -109 -116 -203 -54 -93
-106 -186 -117 -205 -11 -19 -27 -48 -37 -65 -58 -96 -227 -395 -240 -422 -8
-18 -19 -33 -23 -33 -4 0 -8 -5 -8 -10 0 -6 -11 -27 -23 -48 -21 -33 -59 -98
-91 -157 -38 -69 -140 -235 -145 -235 -19 1 -111 132 -111 159 0 6 -4 11 -10
11 -5 0 -10 4 -10 9 0 5 -49 93 -110 196 -60 103 -110 190 -110 192 0 3 -9 18
-21 34 -11 16 -17 29 -12 29 4 0 3 4 -3 8 -9 6 -36 53 -162 272 -11 19 -60
105 -109 191 -49 86 -93 162 -96 170 -27 58 -84 125 -119 142 -41 19 -40 19
-623 19 -549 1 -567 -1 -605 -47 -16 -20 -16 -128 0 -133 5 -2 10 -8 10 -12 0
-9 70 -124 90 -147 5 -7 10 -15 10 -18 0 -3 21 -38 46 -78 99 -153 141 -219
159 -249 5 -10 39 -64 75 -120 36 -56 67 -107 69 -113 2 -5 7 -12 10 -15 5 -4
127 -196 166 -262 6 -9 46 -73 90 -142 44 -70 91 -144 105 -166 30 -47 106
-167 123 -194 7 -11 67 -106 134 -213 68 -107 123 -197 123 -199 0 -3 5 -10
10 -17 11 -12 164 -255 235 -371 22 -36 43 -66 48 -66 4 0 7 -6 7 -12 0 -7 14
-33 30 -58 43 -64 44 -66 105 -160 30 -47 60 -96 68 -110 12 -21 76 -123 285
-452 40 -62 72 -84 102 -68 18 10 55 55 76 95 20 37 39 70 44 75 3 3 18 30 34
60 16 30 32 57 36 60 4 3 9 10 11 16 2 5 41 73 87 150 46 76 89 148 95 159 7
11 24 39 40 63 15 24 27 45 27 47 0 2 52 90 115 196 63 105 115 195 115 200 0
5 5 9 10 9 6 0 10 4 10 9 0 5 20 42 45 83 25 40 52 87 60 103 9 17 44 77 79
135 36 58 104 173 152 255 49 83 93 153 99 157 5 4 6 8 2 8 -4 0 3 15 16 33
13 17 27 39 31 47 4 8 12 24 19 35 48 80 73 123 84 140 7 11 18 31 25 45 7 14
15 27 18 30 4 3 22 32 40 65 19 33 37 62 42 63 4 2 8 12 8 22 0 10 4 20 8 22
4 2 39 56 77 121 39 65 80 135 93 155 12 20 28 48 35 62 6 14 14 27 17 30 4 3
21 32 40 65 19 33 36 62 39 65 6 5 24 37 58 100 10 19 21 37 24 40 3 3 38 61
79 130 40 69 92 155 114 193 23 37 46 75 51 85 33 58 140 238 145 242 3 3 14
21 24 40 62 114 158 268 178 287 13 12 37 25 53 28 29 6 292 10 1335 19 278 3
517 7 532 10 50 11 78 25 85 43 4 10 26 46 51 81 24 34 40 62 36 62 -4 0 0 8
8 18 18 21 34 49 168 292 35 63 72 127 82 143 11 15 16 27 12 27 -4 0 -1 8 7
18 8 9 23 35 34 57 11 22 22 42 25 45 15 13 70 142 70 164 0 33 -19 73 -39 82
-9 4 -39 8 -66 10 -28 1 -55 3 -60 4 -6 1 -14 1 -20 0 -5 -1 -28 -1 -50 -1
-22 0 -58 0 -80 0 -22 0 -49 1 -60 1 -54 0 -73 0 -108 -3 -21 -1 -41 1 -43 5
-2 3 -17 3 -33 -2 -16 -4 -32 -6 -34 -3 -3 2 -22 4 -43 3 -22 0 -48 0 -59 0
-54 0 -73 0 -108 -3 -21 -1 -41 1 -43 5 -2 3 -17 3 -33 -2 -16 -4 -32 -6 -34
-3 -3 2 -22 4 -43 3 -22 0 -48 0 -59 0 -54 0 -73 0 -108 -3 -21 -1 -41 1 -43
5 -2 3 -17 3 -33 -2 -16 -4 -32 -6 -34 -3 -3 2 -22 4 -43 3 -22 0 -48 0 -59 0
-26 0 -72 -1 -110 -1 -16 -1 -34 0 -40 1 -20 4 -87 1 -92 -4 -3 -2 -16 -1 -29
4 -13 5 -25 6 -28 2 -5 -9 -160 -7 -175 3 -6 3 -11 3 -11 -2 0 -7 -97 -9 -125
-3 -5 1 -13 1 -17 0 -19 -4 -86 -2 -95 3 -6 4 -13 4 -16 1z"/>
<path d="M107 6539 c-37 -10 -57 -27 -57 -50 0 -18 48 -112 82 -161 11 -16 16
-28 12 -28 -4 0 -1 -8 7 -17 14 -18 20 -27 67 -112 14 -25 35 -62 47 -81 12
-19 24 -40 26 -45 5 -13 227 -395 251 -433 10 -15 23 -37 29 -49 13 -24 62
-52 95 -53 108 -4 1009 -13 1029 -10 6 1 33 1 60 0 28 -1 214 -3 415 -4 316
-3 370 -5 397 -20 18 -9 37 -25 43 -35 5 -11 16 -25 23 -33 7 -7 37 -47 67
-88 30 -41 57 -77 60 -80 3 -3 22 -27 41 -55 18 -27 40 -54 47 -58 6 -4 12
-14 12 -21 0 -8 7 -16 15 -20 8 -3 15 -12 15 -20 0 -8 4 -16 8 -18 7 -3 93
-111 137 -172 11 -16 25 -33 30 -40 6 -6 23 -29 39 -51 17 -22 33 -42 36 -45
3 -3 13 -15 21 -27 l15 -22 29 25 c15 13 24 24 19 24 -5 0 -4 4 1 8 12 8 144
207 200 302 22 36 43 67 47 68 4 2 8 8 8 14 0 10 100 180 140 238 43 63 82
152 85 197 6 70 -10 112 -98 263 -44 74 -87 149 -97 165 -10 17 -46 77 -80
135 -35 58 -68 114 -74 125 -21 39 -146 240 -158 256 -7 8 -22 19 -33 23 -26
10 -3021 15 -3058 5z"/>
<path d="M6085 4811 c-11 -3 -27 -10 -37 -16 -15 -10 -128 -172 -157 -228 -8
-15 -18 -27 -21 -27 -4 0 -13 -13 -20 -30 -7 -16 -16 -30 -21 -30 -5 0 -9 -5
-9 -12 0 -6 -11 -26 -25 -44 -14 -18 -25 -35 -25 -37 0 -3 -24 -41 -52 -84
-29 -43 -81 -121 -114 -173 -34 -52 -134 -207 -223 -343 -88 -137 -161 -252
-161 -258 0 -5 -4 -9 -10 -9 -5 0 -10 -6 -10 -14 0 -8 -3 -16 -8 -18 -4 -1
-33 -43 -65 -93 -31 -49 -60 -94 -64 -100 -5 -5 -19 -27 -33 -47 -14 -21 -31
-40 -39 -43 -9 -4 -49 30 -108 92 l-93 97 -23 -24 c-13 -14 -57 -77 -98 -140
-41 -63 -77 -116 -81 -118 -5 -2 -8 -7 -8 -12 0 -4 -62 -102 -138 -217 -146
-219 -161 -249 -155 -298 5 -33 110 -221 153 -272 5 -7 10 -14 10 -17 0 -3 27
-49 60 -103 33 -54 64 -105 69 -113 60 -99 217 -349 228 -361 7 -8 13 -21 13
-28 0 -6 9 -21 20 -33 11 -12 20 -28 20 -35 0 -7 3 -13 8 -13 4 0 22 -27 41
-59 19 -33 44 -64 56 -69 19 -9 27 -6 49 19 14 16 26 31 26 34 0 2 17 31 37
62 21 32 38 60 38 63 0 3 18 32 39 64 21 33 43 70 49 83 5 13 14 23 18 23 4 0
10 11 13 25 4 14 11 25 16 25 6 0 10 5 10 10 0 6 34 65 75 131 41 67 75 122
75 124 0 3 107 180 130 215 6 8 13 22 17 30 4 8 11 20 15 25 13 16 79 126 99
166 10 19 25 41 33 49 9 7 16 17 16 22 0 5 15 32 33 61 18 29 36 59 40 67 4 8
25 44 48 80 22 36 91 148 152 250 62 102 114 187 117 190 3 3 14 21 24 40 10
19 32 54 48 78 15 24 28 45 28 48 0 2 12 23 27 47 15 23 33 51 39 62 6 11 70
117 142 235 133 219 245 403 272 449 8 15 67 110 130 213 119 193 159 265 160
284 0 7 -9 22 -19 35 l-19 24 -419 1 c-230 1 -427 -2 -438 -5z"/>
</g>
</svg>
